/* XPM */
static char *result[] = {
/* columns rows colors chars-per-pixel */
"64 64 209 2 ",
"   c #000000",
".  c #0B0803",
"X  c #120B08",
"o  c #281004",
"O  c #281E1B",
"+  c #3A3735",
"@  c #5A130B",
"#  c #501910",
"$  c #47231E",
"%  c #683310",
"&  c #763C11",
"*  c #6E350B",
"=  c #634007",
"-  c #774616",
";  c #7C6A13",
":  c #5E472D",
">  c #4F453A",
",  c #584638",
"<  c #604731",
"1  c #6A543A",
"2  c #5A4C43",
"3  c #554B41",
"4  c #5F5348",
"5  c #5D5654",
"6  c #614F45",
"7  c #6C5C52",
"8  c #635C57",
"9  c #754942",
"0  c #796659",
"q  c #7A6D65",
"w  c #7F7067",
"e  c #6A6764",
"r  c #822910",
"t  c #95351C",
"y  c #93381E",
"u  c #913B25",
"i  c #8D4F0F",
"p  c #8C5C0D",
"a  c #854512",
"s  c #8C5311",
"d  c #8A5B13",
"f  c #845319",
"g  c #995A12",
"h  c #955A13",
"j  c #A55E11",
"k  c #9C640F",
"l  c #986A0C",
"z  c #866A14",
"x  c #8A6718",
"c  c #926313",
"v  c #9A6913",
"b  c #986813",
"n  c #8F7611",
"m  c #A36C0E",
"M  c #A6630F",
"N  c #B36B0E",
"B  c #A6770E",
"V  c #AD740D",
"C  c #AF790E",
"Z  c #B1750E",
"A  c #B47B0D",
"S  c #BB7C0B",
"D  c #B97A09",
"F  c #A36A11",
"G  c #A26412",
"H  c #B46C13",
"J  c #AC7611",
"K  c #AC7911",
"L  c #A67613",
"P  c #B27610",
"I  c #B47810",
"U  c #AB4428",
"Y  c #977436",
"T  c #C97704",
"R  c #835851",
"E  c #907052",
"W  c #81746D",
"Q  c #85796F",
"!  c #897D74",
"~  c #C0725B",
"^  c #AC8F09",
"/  c #B7820D",
"(  c #BC820B",
")  c #BF8A09",
"_  c #BC8805",
"`  c #BA9C05",
"'  c #A28712",
"]  c #B6881B",
"[  c #C48506",
"{  c #CB8406",
"}  c #C68A05",
"|  c #CC8C03",
" . c #C38409",
".. c #C18A09",
"X. c #C88D0F",
"o. c #D38406",
"O. c #D48C02",
"+. c #D98E00",
"@. c #CD9102",
"#. c #D49300",
"$. c #DA9600",
"%. c #DC9A00",
"&. c #D19805",
"*. c #E18C01",
"=. c #E88E00",
"-. c #E59400",
";. c #EA9301",
":. c #E39C00",
">. c #E99B00",
",. c #F19D00",
"<. c #C4A803",
"1. c #DDA108",
"2. c #CCB300",
"3. c #CFA113",
"4. c #DBA118",
"5. c #E5A200",
"6. c #EAA400",
"7. c #EDAA00",
"8. c #F4A500",
"9. c #F3AD00",
"0. c #F8A905",
"q. c #F5B201",
"w. c #F9B501",
"e. c #F7BB01",
"r. c #FABB02",
"t. c #FBBB0B",
"y. c #F5B10E",
"u. c #FBBF14",
"i. c #F4BA12",
"p. c #E6AB17",
"a. c #C99822",
"s. c #DEAE24",
"d. c #D6A235",
"f. c #E8B322",
"g. c #FCC401",
"h. c #FECC02",
"j. c #FCC20B",
"k. c #FDCD0A",
"l. c #F3C500",
"z. c #FFD401",
"x. c #FFDA00",
"c. c #FCC312",
"v. c #FDC31B",
"b. c #FFCB1E",
"n. c #FFCE13",
"m. c #FED61B",
"M. c #FEE302",
"N. c #F5E80D",
"B. c #FBE808",
"V. c #F5E915",
"C. c #F7E91B",
"Z. c #FDEA1C",
"A. c #FCE715",
"S. c #FBCA2B",
"D. c #FDCA22",
"F. c #FED52B",
"G. c #FFD627",
"H. c #EBC730",
"J. c #FED835",
"K. c #FCE924",
"L. c #F9E92A",
"P. c #FBE933",
"I. c #FEE43B",
"U. c #F7EA3A",
"Y. c #F7E635",
"T. c #BFA05D",
"R. c #8C8079",
"E. c #8A8077",
"W. c #91857E",
"Q. c #99897A",
"!. c #B49E73",
"~. c #B28A72",
"^. c #DBAF4B",
"/. c #C5A257",
"(. c #EAB94C",
"). c #C48E7E",
"_. c #C5A56B",
"`. c #FAD14E",
"'. c #E9D656",
"]. c #F7E544",
"[. c #FBEB42",
"{. c #F7EB4D",
"}. c #FBEA4B",
"|. c #FFE744",
" X c #FAEA56",
".X c #EBC364",
"XX c #E7CB75",
"oX c #998C84",
"OX c #9D9798",
"+X c #A88F84",
"@X c #A59589",
"#X c #AD988E",
"$X c #B1A59E",
"%X c #B6ADA3",
"&X c #CDB695",
"*X c #CAB6AD",
"=X c #C6BDB7",
"-X c #EDCC84",
";X c #EADA9C",
":X c #D3C2AD",
">X c #E4CBAD",
",X c #D9CFC6",
"<X c #DCD4CF",
"1X c #E4DFD5",
"2X c #E8E1DB",
"3X c #F7EAE6",
"4X c #F8F2EB",
"5X c #FCF7F4",
"6X c None",
/* pixels */
"6X6X6X6X6X6X6X6X6X6X6X6X6X6X6X6X6X6X6X6X6X6X6X6X6X6X6X6X6X6X6X6X6X6X6X6X6X6X6X6X6X6X6X6X6X6X6X6X6X6X6X6X6X6X6X6X6X6X6X6X6X6X6X6X",
"6X6X6X6X6X6X6X6X6X6X6X6X6X6X6X6X6X6X6X6X6X6X6X6X6X6X6X6X6X6X6X6X6X6X6X6X6X6X6X6X6X6X6X6X6X6X6X6X6X6X6X6X6X6X6X6X6X6X6X6X6X6X6X6X",
"6X6X6X6X6X6X6X6X6X6X6X6X6X6X6X6X6X6X6X6X6X6X6X6X6X6X6X6X6X6X6X6X6X6X6X6X6X6X6X6X6X6X6X6X6X6X6X6X6X6X6X6X6X6X6X`.6X6X6X6X6X6X6X6X",
"6X6X6X6X6X6X6X6X6X6X6X6X6X6X6X6X6X6X6X6X6X6X6X6X6X6X6X6X6X6X6X6X6X6X6X6X6X6X6X6X6X6X6X6X6X6X6X6X6X6X6X6X6X|.S.(.6X6X6X6X6X6X6X6X",
"6X6X6X6X6X6X6X6X6X6X6X6X6X6X6X6X6X6X6X6X6X6X6X6X6X6X6X6X6X6X6X6X6X6X6X6X6X6X6X6XU.].{.6X6X6X6X6X6X6X6X6X].J.p.X.i 6X6X6X6X6X6X6X",
"6X6X6X6X6X6X6X6X6X6X6X6X6X6X6X6X6X6X6X6X6X6X6X6X6X6X6X6X6X6X6X6X6X6X6X6XP.V.N.C.L.Y.P.K.A.L.[. X X{.].H.3._ k g i 6X6X6X6X6X6X6X",
"6X6X6X6X6X6X6X6X6X    6X6X6X6X6X6X6X6X6X6X6X6X6X6X6X6X6X6X6X6X6X6X6XP.V.B.V.P.{. X[.G.k.h.l.2.<.` ^ ' l p p s i & 6X6X6X6X6X6X6X",
"6X6X6X6X6X6X6X6X6X6X    6X6X6X6X6X6X6X6X6X6X6X6X6X6X6X6X6X6X6X6XP.C.B.B.Z.I.}.}.I.J.n.r.r.e.<.' n z z x x s - & * 6X6X6X6X6X6X6X",
"6X6X6X6X6X6X6X6X6X  6X6X6X6X6X6X6X6X6X6X6X6X6X6X6X6X6X6X6X6X6XL.N.B.M.A.P.I.J.J.S.v.t.e.w.w.` ; x z 6X6X6X6X6X6X6X6X6X6X6X6X6X6X",
"6X6X6X6X6X6X6X6X6X6X6X6X6X6X6X6X6X6X6X6X6X6X6X6X6X6X6X6X6X6XV.V.Z.B.m.G.F.F.S.b.t.e.w.q.9.6.l 6X6X6X6X6X6X6X6X6X6X6X6X6X6X6X6X6X",
"6X6X6X6X6X6X6X6X  6X6X6X6X6X6X6X6X6X6X6X6X6X6X6X6X6X6X6X6XN.B.K.B.n.m.D.D.D.c.t.e.w.q.7.:.+.6X6X6X6X6X6X6X6X6X6X6X6X6X6X6X6X6X6X",
"6X6X6X6X6X6X6X6X  6X6X6X6X6X6X6X6X6X6X6X6X6X6X6X6X6X6X6XK.Z.L.C.k.v.v.b.v.u.t.e.q.q.6.$.O.N 6X6X6X6X6X6X6X6X6X6X6X6X6X6X6X6X6X6X",
"6X6X6X6X6X6X6X6X6X6X6X6X6X6X6X6X6X6X6X6X6X6X6X6X6X6X6XZ.K.Z.L.z.c.v.v.v.t.w.w.w.9.6.$.| Z 6X6X6X6X6X6X6X6X6X6X6X6X6X6X6X6X6X6X6X",
"6X6X6X6X6X6X6X  6X6X6X6X6X6X6X6X6X6X6X6X6X6X6X6X6X6Xk.A.Y.;XXXj.v.v.u.e.w.w.w.q.6.%.#.A j 6X6X6X6X6X6X6X6X6X6X6X6X6X6X6X6X6X6X6X",
"6X6X6X6X6X6X6X  6X6X6X6X6X6X6X6X6X6X6X6X6X6X6X6X6X6Xm.'.O X OX4Xi.c.r.e.w.w.w.7.:.$.{ G 6X6X6X6X6X6X6X6X6X6X6X6X6X6X6X6X6X6X6X6X",
"6X6X6X6X6X6X6X  6X6X6X6X6X6X6X6X6X6X6X6X6X6X6X6X6Xw.m.5   .   5X.Xe.i..X(.q.q.5.%.#.V 6X6X6X6X6X6X6X6X6X6X6X6X6X6X6X6X6X6X6X6X6X",
"6X6X6X6X6X6X6X  6X6X6X6X6X6X6X6X6X6X6X6X6X6X6X6X6Xt.m.q     . 4X-Xf.3X4X4X>X7.5.%.| M 6X6X6X6X6X6X6X6X6X6X6X6X6X6X6X6X6X6X6X6X6X",
"6X6X6X6X6X6X6X  6X6X6X6X6X6X6X6X6X6X6X6X6X6X6X6X0.t.j.XXe + =X1Xs.:X3X8 X 5 4.%.$.S 6X6X6X6X6X6X6X6X6X6X6X6X6X6X6X6X6X6X6X6X6X6X",
"6X6X6X6X6X6X6X  6X6X6X6X6X6X6X6X6X6X6X6X6X6X6X6Xw.w.e.&.!.2X1X/.5.:X<X      d.1.$.H 6X6X6X6X6X6X6X6X6X6X6X6X6X6X6X6X6X6X6X6X6X6X",
"6X6X6X6X6X6X6X  6X6X6X6X6X6X6X6X6X6X6X6X6X6X6X,.w.w.-X,X&XB _ 7.6.Y ,X.     1.1.#.6X6X6X6X6X6X6X6X6X6X6X6X6X6X6X6X6X6X6X6X6X6X6X",
"6X6X6X6X6X6X6X  6X6X6X6X6X6X6X6X6X6X6X6X6X6X6X8.w.^.@X2 W &Xp.6.:.D E %X> v 5.1.| 6X6X6X6X6X6X6X6X6X6X6X6X6X6X6X6X6X6X6X6X6X6X6X",
"6X6X6X6X6X6X6X6X6X6X6X6X6X6X6X6X6X6X6X6X6X6X6X9.w.+XW $ , q *X(.4.a._.T.K &.5.5.6X6X6X6X6X6X6X6X6X6X6X6X6X6X6X6X6X6X6X6X6X6X6X6X",
"6X6X6X6X6X6X6X6X  6X6X6X6X6X6X6X6X6X6X6X6X6X6Xq.q.W ! @ *X7 2 ! $X#X! E./.5.5.5.6X6X6X6X6X6X6X6X6X6X6X6X6X6X6X6X6X6X6X6X6X6X6X6X",
"6X6X6X6X6X6X6X6X6X  6X6X6X6X6X6X6X6X6X6X6X6X>.9.9.0 oXu @ +X#X7 4 7 W > Q.6.6.>.6X6X6X6X6X6X6X6X6X6X6X6X6X6X6X6X6X6X6X6X6X6X6X6X",
"6X6X6X6X6X6X6X6X6X6X6X6X6X6X6X6X6X6X6X6X6X6X>.9.9.Y w Q.u @ 9 #XE R # oXE 7.7.6X6X6X6X6X6X6X6X6X6X6X6X6X6X6X6X6X6X6X6X6X6X6X6X6X",
"6X6X6X6X6X6X6X6X6X6X  6X6X6X6X6X6X6X6X6X6X6X6.9.9.@.6 oX~ U t r y u +X! ] 7.7.6X6X6X6X6X6X6X6X6X6X6X6X6X6X6X6X6X6X6X6X6X6X6X6X6X",
"6X6X6X6X6X6X6X6X6X6X6X6X  6X6X6X6X6X6X6X6X6X6.9.6.#.d , W.*X+X~ +X*X! 1 7.7.8.6X6X6X6X6X6X6X6X6X6X6X6X6X6X6X6X6X6X6X6X6X6X6X6X6X",
"6X6X6X6X6X6X6X6X6X6X6X6X6X  6X6X6X6X6X6X6X6X6.9.6.O.J f , 6 ! Q.! 7 < X.7.7.8.6X6X6X6X6X6X6X6X6X6X6X6X6X6X6X6X6X6X6X6X6X6X6X6X6X",
"6X6X6X6X6X6X6X6X6X6X6X6X6X6X6X  6X6X6X6X6X6X5.7.5.O.I F d - < : : - m 1.q.9.8.6X6X6X6X6X6X6X6X6X6X6X6X6X6X6X6X6X6X6X6X6X6X6X6X6X",
"6X6X6X6X6X6X6X6X6X6X6X6X6X6X6X6X6X    6X6X6X:.6.:.| / F v h d s p m } 7.q.9.0.6X6X6X6X6X6X6X6X6X6X6X6X6X6X6X6X6X6X6X6X6X6X6X6X6X",
"6X6X6X6X6X6X6X6X6X6X6X6X6X6X6X6X6X6X6X6X  . S 5.:.@. .K V F v F V _ $.7.w.w.8.6X6X6X6X6X6X6X6X6X6X6X6X6X6X6X6X6X6X6X6X6X6X6X6X6X",
"6X6X6X6X6X6X6X6X6X6X6X6X6X6X6X6X6X6X6X6X6X6X| 6.%.| } T S ( S S [ #.:.8.w.w.0.6X6X6X6X6X6X6X6X6X6X6X6X6X6X6X6X6X6X6X6X6X6X6X6X6X",
"6X6X6X6X6X6X6X6X6X6X6X6X6X6X6X6X6X6X6X6X6X6X} %.$.| | [ } } | @.O.$.5.7.w.w.#.  6X6X6X6X6X6X6X6X6X6X6X6X6X6X6X6X6X6X6X6X6X6X6X6X",
"6X6X6X6X6X6X6X6X6X6X6X6X6X6X6X6X6X6X6X6X6X6X_ %.:.| | | | @.#.@.$.%.:.9.e.r.q.6X6X6X6X          6X6X6X6X6X6X6X6X6X6X6X6X6X6X6X6X",
"6X6X6X6X6X6X6X6X6X6X6X6X6X6X6X6X6X6X6X6X6X6X[ $.%.| } | #.#.#.$.$.&.5.7.r.r.q.6X6X6X6X6X6X6X6X6X6X6X    6X6X6X6X6X6X6X6X6X6X6X6X",
"6X6X6X6X6X6X6X6X6X6X6X6X6X6X6X6X6X6X6X6X6X6X..&.$.O.{ | #.#.$.$.$.$.:.7.w.g.e.6X6X6X6X6X6X6X6X6X6X6X6X6X  6X6X6X6X6X6X6X6X6X6X6X",
"6X6X6X6X6X6X6X6X6X6X6X6X6X6X6X6X6X6X6X6X6X6X6X@.$.#.[ | #.#.$.$.$.$.$.5.w.j.r.6X6X6X6X6X6X6X6X6X6X6X6X6X6X  6X6X6X6X6X6X6X6X6X6X",
"6X6X6X6X6X6X6X6X6X6X6X6X6X6X6X6X6X6X6X6X6X6X6X} $.#.[ { | #.$.$.$.$.$.5.q.j.g.q.6X6X6X6X6X6X6X6X6X6X6X6X6X6X6X6X6X6X6X6X6X6X6X6X",
"6X6X6X6X6X6X6X6X6X6X6X6X6X6X6X6X6X6X6X6X6X6X6X) #.$.[ S | #.#.$.&.#.$.$.9.j.g.w.6X6X6X6X6X6X6X6X6X6X6X6X6X6X  6X6X6X6X6X6X6X6X6X",
"6X6X6X6X6X6X6X6X6X6X6X6X6X6X6X6X6X6X6X6X6X6X6X/ @.#.| S [ @.@.#.#.$.#.$.6.t.h.g.6X6X6X6X6X6X6X6X6X6X6X6X6X6X6X6X6X6X6X6X6X6X6X6X",
"6X6X6X6X6X6X6X6X6X6X6X6X6X6X6X6X6X6X6X6X6X6X6X6X} @.@.S D | | $.&.@.$.#.%.q.h.h.e.6X6X6X6X6X6X6X6X6X6X6X6X  6X6X6X6X6X6X6X6X6X6X",
"6X6X6X6X6X6X6X6X6X6X6X6X6X6X6X6X6X6X6X6X6X6X6X6X/ @.@._ Z ..#.#.$.#.#.#.$.7.k.h.g.6X6X6X6X6X6X6X6X6X6X6X6X6X6X6X6X6X6X6X6X6X6X6X",
"6X6X6X6X6X6X6X6X6X6X6X6X6X6X6X6X6X6X6X6X6X6X6X6X6X) } ) P Z } @.#.&.$.&.$.1.q.k.h.g.6X6X6X6X6X6X6X6X6X6X  6X6X6X6X6X6X6X6X6X6X6X",
"6X6X6X6X6X6X6X6X6X6X6X6X6X6X6X6X6X6X6X6X6X6X6X6X6XL ..) Z V ( | @.$.$.$.$.%.7.h.z.h.6X6X6X6X6X6X6X6X6X  6X6X6X6X6X6X6X6X6X6X6X6X",
"6X6X6X6X6X6X6X6X6X6X6X6X6X6X6X6X6X6X6X6X6X6X6X6X6X6XK / I C P  .| #.$.$.:.:.:.w.z.h.g.6X6X6X6X6X6X6X6X6X6X6X6X6X6X6X6X6X6X6X6X6X",
"6X6X6X6X6X6X6X6X6X6X6X6X6X6X6X6X6X6X6X6X6X6X6X6X6X6X6XB C C Z D ..| #.+.$.:.:.6.e.z.z.h.6X6X6X6X6X6X6X6X6X6X6X6X6X6X6X6X6X6X6X6X",
"6X6X6X6X6X6X6X6X6X6X6X6X6X6X6X6X6X6X6X6X6X6X6X6X6X6X6Xd L K Z C S  .{ O.T :.6.:.7.h.x.x.h.6X6X6X6X6X6X6X6X6X6X6X6X6X6X6X6X6X6X6X",
"6X6X6X6X6X6X6X6X6X6X6X6X6X6X6X6X6X6X6X6X6X6X6X6X6X6X6X6Xc J C C Z (  .{ o.+.-.%.:.q.z.x.x.6X6X6X6X6X6X6X6X6X6X6X6X6X6X6X6X6X6X6X",
"6X6X6X6X6X6X6X6X6X6X6X6X6X6X6X6X6X6X6X6X6X6X6X6X6X6X6X6X6Xc K C Z I S  .{ O.$.$.%.5.e.x.x.h.6X6X6X6X6X6X6X6X6X6X6X6X6X6X6X6X6X6X",
"6X6X6X6X6X6X6X6X6X6X6X6X6X6X6X6X6X6X6X6X6X6X6X6X6X6X6X6X6X6Xl J A A I (  .{ O.$.%.:.7.g.x.x.h.6X6X6X6X6X6X6X6X6X6X6X6X6X6X6X6X6X",
"6X6X6X6X6X6X6X6X6X6X6X6X6X6X6X6X6X6X6X6X6X6X6X6X6X6X6X6X6X6X6Xv K A A A S  .| $.%.>.>.9.e.h.z.h.6X6X6X6X6X6X6X6X6X6X6X6X6X6X6X6X",
"6X6X6X6X6X6X6X6X6X6X6X6X6X6X6X6X6X6X6X6X6X6X6X6X6X6X6X6X6X6X6X6Xv K A D D S [ #.$.:.6.>.6.q.z.z.h.6X6X6X6X6X6X6X6X6X6X6X6X6X6X6X",
"6X6X6X6X6X6X6X6X6X6X6X6X6X6X6X6X6X6X6X6X6X6X6X6X6X6X6X6X6X6X6X6X6Xc K A A D ( } #.$.>.>.:.6.9.k.x.g.6X6X6X6X6X6X6X6X6X6X6X6X6X6X",
"6X6X6X6X6X6X6X6X6X6X6X6X6X6X6X6X6X6X6X6X6X6X6X6X6X6X6X6X6X6X6X6X6X6Xc V / A A S [ +.-.>.-.>.>.>.j.z.y.6X6X6X6X6X6X6X6X6X6X6X6X6X",
"6X6X6X6X6X6X6X6X6X6X6X6X6X6X6X6X6X6X6X6X6X6X6X6X6X6X6X6X6X6X6X6X6X6X6X6Xv / / A S [ +.-.-.;.-.*.T ,.y.6X6X6X6X6X6X6X6X6X6X6X6X6X",
"6X6X6X6X6X6X6X6X6X6X6X6X6X6X6X6X6X6X6X6X6X6X6X6X6X6X6X6X6X6X6X6X6X6X6X6X6Xc L / / Z D o.*.;.;.=.*.T H o   6X6X6X6X6X6X6X6X6X6X6X",
"6X6X6X6X6X6X6X6X6X6X6X6X6X6X6X6X6X6X6X6X6X6X6X6X6X6X6X6X6X6X6X6X6X6X6X6X6X    = B P P N H I T { o.o.a 6X6X6X  6X6X6X6X6X6X6X6X6X",
"6X6X6X6X6X6X6X6X6X6X6X6X6X6X6X6X6X6X6X6X6X6X6X6X6X6X6X6X6X6X6X6X6X6X6X6X  6X6X6X6X6X6Xh g g g g i % 6X6X6X6X6X6X6X6X6X6X6X6X6X6X",
"6X6X6X6X6X6X6X6X6X6X6X6X6X6X6X6X6X6X6X6X6X6X6X6X6X6X6X6X6X6X6X6X6X6X6X  6X6X6X6X6X6X6X6X6X6X6X6X6X6X6X6X6X6X6X6X  6X6X6X6X6X6X6X",
"6X6X6X6X6X6X6X6X6X6X6X6X6X6X6X6X6X6X6X6X6X6X6X6X6X6X6X6X6X6X6X6X6X6X6X6X6X6X6X6X6X6X6X6X6X6X6X6X6X6X6X6X6X6X6X6X  6X6X6X6X6X6X6X",
"6X6X6X6X6X6X6X6X6X6X6X6X6X6X6X6X6X6X6X6X6X6X6X6X6X6X6X6X6X6X6X6X6X6X6X  6X6X6X6X6X6X6X6X6X6X6X6X6X6X6X6X6X6X6X6X  6X6X6X6X6X6X6X",
"6X6X6X6X6X6X6X6X6X6X6X6X6X6X6X6X6X6X6X6X6X6X6X6X6X6X6X6X6X6X6X6X6X6X6X6X6X6X6X6X6X6X6X6X6X6X6X6X6X6X6X6X6X6X6X6X6X6X6X6X6X6X6X6X",
"6X6X6X6X6X6X6X6X6X6X6X6X6X6X6X6X6X6X6X6X6X6X6X6X6X6X6X6X6X6X6X6X6X6X6X6X6X6X6X6X6X6X6X6X6X6X6X6X6X6X6X6X6X6X6X6X6X6X6X6X6X6X6X6X",
"6X6X6X6X6X6X6X6X6X6X6X6X6X6X6X6X6X6X6X6X6X6X6X6X6X6X6X6X6X6X6X6X6X6X6X6X6X6X6X6X6X6X6X6X6X6X6X6X6X6X6X6X6X6X6X6X6X6X6X6X6X6X6X6X"
};
